<svg width="1315" height="172" viewBox="0 0 1315 172" fill="none" xmlns="http://www.w3.org/2000/svg">
<path d="M45.1699 0L21.7031 135H0.960938L24.4277 0H45.1699ZM96.3223 39.9023L48.5977 85.4297L21.6152 109.424L19.1543 90.0879L38.8418 69.5215L69.7793 39.9023H96.3223ZM59.1445 135L36.4688 89.4727L51.2344 75.4102L81.9082 135H59.1445Z" fill="black"/>
<path d="M119.712 39.9023L103.188 135H82.534L99.0574 39.9023H119.712ZM101.958 15.293C101.899 11.8945 103.012 9.11133 105.298 6.94336C107.583 4.77539 110.395 3.66211 113.735 3.60352C116.958 3.54492 119.712 4.54102 121.997 6.5918C124.341 8.58398 125.512 11.25 125.512 14.5898C125.571 17.9883 124.429 20.7422 122.085 22.8516C119.8 24.9609 117.016 26.0449 113.735 26.1035C110.512 26.1621 107.759 25.2246 105.473 23.291C103.188 21.2988 102.016 18.6328 101.958 15.293Z" fill="black"/>
<path d="M174.654 114.082L194.429 0H215.259L191.793 135H173.16L174.654 114.082ZM119.107 89.209L119.283 87.3633C120.045 81.5039 121.421 75.6445 123.414 69.7852C125.464 63.9258 128.218 58.5645 131.675 53.7012C135.191 48.8379 139.468 44.9707 144.507 42.0996C149.605 39.2285 155.582 37.8809 162.437 38.0566C168.414 38.2324 173.394 39.7852 177.379 42.7148C181.363 45.6445 184.468 49.4238 186.695 54.0527C188.98 58.6816 190.533 63.6914 191.353 69.082C192.173 74.4141 192.437 79.6289 192.144 84.7266L191.441 90.7031C190.504 96.0938 188.921 101.543 186.695 107.051C184.468 112.559 181.568 117.598 177.994 122.168C174.478 126.738 170.259 130.371 165.337 133.066C160.474 135.762 154.908 137.021 148.638 136.846C142.369 136.611 137.183 135.029 133.082 132.1C128.98 129.111 125.816 125.273 123.589 120.586C121.363 115.84 119.927 110.742 119.283 105.293C118.638 99.7852 118.58 94.4238 119.107 89.209ZM140.201 87.1875L140.025 89.0332C139.673 92.0801 139.527 95.332 139.586 98.7891C139.644 102.246 140.113 105.557 140.992 108.721C141.929 111.826 143.482 114.404 145.65 116.455C147.877 118.506 150.982 119.619 154.966 119.795C159.595 119.971 163.697 118.916 167.271 116.631C170.904 114.346 173.921 111.357 176.324 107.666C178.726 103.975 180.425 100.049 181.421 95.8887L183.882 79.8047C184.058 76.875 183.853 73.9746 183.267 71.1035C182.74 68.2324 181.773 65.625 180.367 63.2812C178.961 60.9375 177.086 59.0332 174.742 57.5684C172.457 56.0449 169.673 55.2539 166.392 55.1953C162.056 55.0195 158.306 55.8984 155.142 57.832C152.037 59.7656 149.459 62.3438 147.408 65.5664C145.416 68.7891 143.834 72.3047 142.662 76.1133C141.49 79.9219 140.67 83.6133 140.201 87.1875Z" fill="black"/>
<path d="M206.745 89.0332L207.008 87.0117C207.711 80.4492 209.323 74.209 211.842 68.291C214.362 62.373 217.702 57.1289 221.862 52.5586C226.08 47.9297 231.032 44.3262 236.715 41.748C242.457 39.1699 248.844 37.9688 255.875 38.1445C262.672 38.2617 268.502 39.668 273.366 42.3633C278.288 45.0586 282.272 48.6621 285.319 53.1738C288.424 57.627 290.592 62.7246 291.823 68.4668C293.053 74.1504 293.375 80.0977 292.789 86.3086L292.614 88.3301C291.852 94.8926 290.182 101.104 287.604 106.963C285.084 112.822 281.715 118.037 277.496 122.607C273.336 127.119 268.385 130.664 262.643 133.242C256.959 135.762 250.631 136.934 243.659 136.758C236.92 136.641 231.09 135.264 226.168 132.627C221.305 129.932 217.321 126.357 214.215 121.904C211.168 117.451 209.03 112.412 207.799 106.787C206.569 101.104 206.217 95.1855 206.745 89.0332ZM227.575 87.0117L227.399 89.0332C227.106 92.2559 227.077 95.6543 227.311 99.2285C227.545 102.803 228.248 106.143 229.42 109.248C230.592 112.354 232.409 114.902 234.87 116.895C237.33 118.887 240.612 119.941 244.713 120.059C249.049 120.176 252.829 119.297 256.051 117.422C259.274 115.547 261.969 113.027 264.137 109.863C266.305 106.699 268.034 103.242 269.323 99.4922C270.612 95.6836 271.461 91.9629 271.871 88.3301L272.047 86.3086C272.399 83.1445 272.457 79.7754 272.223 76.2012C271.989 72.5684 271.286 69.1699 270.114 66.0059C268.942 62.7832 267.125 60.1758 264.664 58.1836C262.204 56.1328 258.922 55.0488 254.821 54.9316C250.426 54.8145 246.618 55.7227 243.395 57.6562C240.172 59.5312 237.477 62.0801 235.309 65.3027C233.141 68.5254 231.413 72.041 230.123 75.8496C228.893 79.6582 228.043 83.3789 227.575 87.0117Z" fill="black"/>
<path d="M319.607 112.939L353.269 39.9023H367.155L359.245 63.0176L325.671 135H313.279L319.607 112.939ZM319.695 39.9023L323.474 115.488L321.364 135H308.445L300.007 39.9023H319.695ZM374.187 112.324L402.575 39.9023H423.318L381.921 135H368.21L374.187 112.324ZM368.825 39.9023L377.263 114.258L376.12 135H364.782L355.554 60.9082L355.818 39.9023H368.825Z" fill="black"/>
<path d="M483.807 119.971C487.264 120.029 490.429 119.385 493.3 118.037C496.171 116.689 498.544 114.756 500.419 112.236C502.352 109.717 503.7 106.816 504.462 103.535L524.061 103.447C523.3 110.244 520.897 116.162 516.854 121.201C512.87 126.24 507.889 130.137 501.913 132.891C495.995 135.586 489.725 136.875 483.104 136.758C476.366 136.641 470.595 135.264 465.79 132.627C461.044 129.99 457.206 126.445 454.276 121.992C451.346 117.539 449.296 112.5 448.124 106.875C447.011 101.191 446.747 95.3027 447.333 89.209L447.684 86.0449C448.388 79.541 449.94 73.3887 452.343 67.5879C454.804 61.7871 458.055 56.6602 462.098 52.207C466.2 47.6953 471.034 44.1797 476.6 41.6602C482.167 39.1406 488.436 37.9688 495.409 38.1445C502.44 38.2617 508.505 39.873 513.602 42.9785C518.7 46.084 522.596 50.332 525.292 55.7227C527.987 61.0547 529.305 67.1484 529.247 74.0039L509.823 73.916C509.823 70.6348 509.266 67.5879 508.153 64.7754C507.098 61.9043 505.399 59.5898 503.055 57.832C500.77 56.0156 497.782 55.0488 494.091 54.9316C489.755 54.8145 486.034 55.6641 482.929 57.4805C479.882 59.2969 477.333 61.7578 475.282 64.8633C473.29 67.9688 471.708 71.3965 470.536 75.1465C469.423 78.8379 468.661 82.5 468.251 86.1328L467.899 89.209C467.606 92.3145 467.489 95.6543 467.548 99.2285C467.665 102.744 468.221 106.055 469.218 109.16C470.214 112.266 471.854 114.814 474.139 116.807C476.483 118.799 479.706 119.854 483.807 119.971Z" fill="black"/>
<path d="M527.763 89.0332L528.027 87.0117C528.73 80.4492 530.341 74.209 532.861 68.291C535.38 62.373 538.72 57.1289 542.88 52.5586C547.099 47.9297 552.05 44.3262 557.734 41.748C563.476 39.1699 569.863 37.9688 576.894 38.1445C583.691 38.2617 589.521 39.668 594.384 42.3633C599.306 45.0586 603.291 48.6621 606.338 53.1738C609.443 57.627 611.611 62.7246 612.841 68.4668C614.072 74.1504 614.394 80.0977 613.808 86.3086L613.632 88.3301C612.871 94.8926 611.201 101.104 608.623 106.963C606.103 112.822 602.734 118.037 598.515 122.607C594.355 127.119 589.404 130.664 583.662 133.242C577.978 135.762 571.65 136.934 564.677 136.758C557.939 136.641 552.109 135.264 547.187 132.627C542.324 129.932 538.339 126.357 535.234 121.904C532.187 117.451 530.048 112.412 528.818 106.787C527.588 101.104 527.236 95.1855 527.763 89.0332ZM548.593 87.0117L548.418 89.0332C548.125 92.2559 548.095 95.6543 548.33 99.2285C548.564 102.803 549.267 106.143 550.439 109.248C551.611 112.354 553.427 114.902 555.888 116.895C558.349 118.887 561.63 119.941 565.732 120.059C570.068 120.176 573.847 119.297 577.07 117.422C580.293 115.547 582.988 113.027 585.156 109.863C587.324 106.699 589.052 103.242 590.341 99.4922C591.63 95.6836 592.48 91.9629 592.89 88.3301L593.066 86.3086C593.418 83.1445 593.476 79.7754 593.242 76.2012C593.007 72.5684 592.304 69.1699 591.132 66.0059C589.961 62.7832 588.144 60.1758 585.683 58.1836C583.222 56.1328 579.941 55.0488 575.839 54.9316C571.445 54.8145 567.636 55.7227 564.414 57.6562C561.191 59.5312 558.496 62.0801 556.328 65.3027C554.16 68.5254 552.431 72.041 551.142 75.8496C549.912 79.6582 549.062 83.3789 548.593 87.0117Z" fill="black"/>
<path d="M645.371 60.4688L632.452 135H611.709L628.233 39.9023H647.745L645.371 60.4688ZM638.252 83.9355H631.397C632.1 78.1348 633.448 72.4805 635.44 66.9727C637.491 61.4062 640.245 56.4258 643.702 52.0312C647.159 47.6367 651.377 44.1797 656.358 41.6602C661.338 39.1406 667.11 37.9688 673.672 38.1445C678.536 38.2617 682.608 39.2285 685.889 41.0449C689.229 42.8613 691.895 45.3223 693.887 48.4277C695.879 51.5332 697.198 55.0781 697.842 59.0625C698.487 62.9883 698.604 67.1777 698.194 71.6309L687.647 135H666.905L677.276 73.3887C677.686 69.9902 677.569 66.9434 676.924 64.248C676.28 61.4941 674.932 59.2969 672.881 57.6562C670.889 56.0156 668.018 55.1367 664.268 55.0195C660.108 54.9023 656.504 55.6641 653.457 57.3047C650.411 58.9453 647.862 61.1719 645.811 63.9844C643.819 66.7969 642.178 69.9609 640.889 73.4766C639.659 76.9336 638.78 80.4199 638.252 83.9355ZM696.436 78.3105L686.416 80.5078C687.061 75 688.409 69.6973 690.459 64.5996C692.569 59.4434 695.352 54.873 698.809 50.8887C702.325 46.8457 706.485 43.6816 711.289 41.3965C716.094 39.0527 721.543 37.9395 727.637 38.0566C732.793 38.1738 737.129 39.1992 740.645 41.1328C744.161 43.0078 746.914 45.5859 748.907 48.8672C750.957 52.1484 752.305 55.8984 752.95 60.1172C753.594 64.2773 753.653 68.7305 753.125 73.4766L742.842 135H722.1L732.471 73.3008C732.881 69.8438 732.764 66.7676 732.12 64.0723C731.534 61.3184 730.245 59.1504 728.252 57.5684C726.26 55.9863 723.36 55.166 719.551 55.1074C716.153 54.9902 713.106 55.5762 710.411 56.8652C707.774 58.0957 705.489 59.8242 703.555 62.0508C701.68 64.2188 700.157 66.709 698.985 69.5215C697.813 72.334 696.963 75.2637 696.436 78.3105Z" fill="black"/>
<path d="M787.15 59.4141L767.638 171.562H746.896L769.747 39.9023H788.82L787.15 59.4141ZM842.345 86.0449L842.169 87.8906C841.466 93.6328 840.089 99.4336 838.038 105.293C836.046 111.094 833.321 116.426 829.864 121.289C826.466 126.094 822.277 129.932 817.296 132.803C812.316 135.674 806.456 137.021 799.718 136.846C793.8 136.729 788.82 135.322 784.777 132.627C780.734 129.873 777.511 126.299 775.109 121.904C772.706 117.51 771.007 112.705 770.011 107.49C769.073 102.217 768.722 97.002 768.956 91.8457L769.835 84.8145C770.773 79.248 772.355 73.6816 774.581 68.1152C776.866 62.5488 779.796 57.4805 783.37 52.9102C786.945 48.2812 791.193 44.6191 796.114 41.9238C801.036 39.2285 806.691 37.9688 813.077 38.1445C819.581 38.3203 824.884 39.873 828.986 42.8027C833.087 45.7324 836.193 49.541 838.302 54.2285C840.47 58.916 841.818 64.043 842.345 69.6094C842.931 75.1758 842.931 80.6543 842.345 86.0449ZM821.427 87.8027L821.691 85.8691C821.984 82.8809 822.071 79.6289 821.954 76.1133C821.896 72.5977 821.398 69.2871 820.46 66.1816C819.523 63.0176 817.911 60.4102 815.626 58.3594C813.4 56.3086 810.294 55.2246 806.31 55.1074C802.677 54.9316 799.396 55.5176 796.466 56.8652C793.536 58.1543 790.958 59.9707 788.732 62.3145C786.505 64.6582 784.63 67.3242 783.107 70.3125C781.642 73.3008 780.587 76.4062 779.943 79.6289L777.218 96.8555C777.042 100.723 777.57 104.414 778.8 107.93C780.089 111.387 782.081 114.229 784.777 116.455C787.53 118.682 791.017 119.854 795.236 119.971C799.571 120.088 803.292 119.18 806.398 117.246C809.503 115.312 812.081 112.734 814.132 109.512C816.183 106.23 817.794 102.686 818.966 98.877C820.196 95.0098 821.017 91.3184 821.427 87.8027Z" fill="black"/>
<path d="M844.992 89.0332L845.256 87.0117C845.959 80.4492 847.57 74.209 850.09 68.291C852.609 62.373 855.949 57.1289 860.109 52.5586C864.328 47.9297 869.279 44.3262 874.963 41.748C880.705 39.1699 887.092 37.9688 894.123 38.1445C900.92 38.2617 906.75 39.668 911.613 42.3633C916.535 45.0586 920.52 48.6621 923.566 53.1738C926.672 57.627 928.84 62.7246 930.07 68.4668C931.301 74.1504 931.623 80.0977 931.037 86.3086L930.861 88.3301C930.1 94.8926 928.43 101.104 925.852 106.963C923.332 112.822 919.963 118.037 915.744 122.607C911.584 127.119 906.633 130.664 900.891 133.242C895.207 135.762 888.879 136.934 881.906 136.758C875.168 136.641 869.338 135.264 864.416 132.627C859.553 129.932 855.568 126.357 852.463 121.904C849.416 117.451 847.277 112.412 846.047 106.787C844.816 101.104 844.465 95.1855 844.992 89.0332ZM865.822 87.0117L865.646 89.0332C865.354 92.2559 865.324 95.6543 865.559 99.2285C865.793 102.803 866.496 106.143 867.668 109.248C868.84 112.354 870.656 114.902 873.117 116.895C875.578 118.887 878.859 119.941 882.961 120.059C887.297 120.176 891.076 119.297 894.299 117.422C897.521 115.547 900.217 113.027 902.385 109.863C904.553 106.699 906.281 103.242 907.57 99.4922C908.859 95.6836 909.709 91.9629 910.119 88.3301L910.295 86.3086C910.646 83.1445 910.705 79.7754 910.471 76.2012C910.236 72.5684 909.533 69.1699 908.361 66.0059C907.189 62.7832 905.373 60.1758 902.912 58.1836C900.451 56.1328 897.17 55.0488 893.068 54.9316C888.674 54.8145 884.865 55.7227 881.643 57.6562C878.42 59.5312 875.725 62.0801 873.557 65.3027C871.389 68.5254 869.66 72.041 868.371 75.8496C867.141 79.6582 866.291 83.3789 865.822 87.0117Z" fill="black"/>
<path d="M962.249 61.4355L949.505 135H928.763L945.286 39.9023H964.71L962.249 61.4355ZM954.954 83.9355L948.626 84.0234C949.329 78.3398 950.706 72.7441 952.757 67.2363C954.866 61.6699 957.649 56.6895 961.106 52.2949C964.563 47.8418 968.753 44.3262 973.675 41.748C978.655 39.1699 984.397 37.9688 990.901 38.1445C996.057 38.2617 1000.33 39.2871 1003.73 41.2207C1007.19 43.1543 1009.86 45.7617 1011.73 49.043C1013.66 52.3242 1014.92 56.0742 1015.51 60.293C1016.1 64.5117 1016.13 68.9355 1015.6 73.5645L1005.4 135H984.573L994.944 73.3008C995.296 69.9023 995.179 66.8555 994.593 64.1602C994.007 61.4062 992.718 59.2383 990.725 57.6562C988.733 56.0156 985.862 55.166 982.112 55.1074C978.011 54.9902 974.407 55.752 971.302 57.3926C968.196 59.0332 965.53 61.2891 963.304 64.1602C961.077 66.9727 959.261 70.1074 957.854 73.5645C956.507 77.0215 955.54 80.4785 954.954 83.9355Z" fill="black"/>
<path d="M1058.15 136.758C1051.64 136.641 1045.87 135.381 1040.83 132.979C1035.85 130.518 1031.72 127.207 1028.44 123.047C1025.16 118.828 1022.79 113.994 1021.32 108.545C1019.86 103.037 1019.36 97.1777 1019.83 90.9668L1020.18 87.3633C1020.82 80.9766 1022.38 74.8242 1024.84 68.9062C1027.3 62.9297 1030.58 57.627 1034.68 52.998C1038.84 48.3105 1043.73 44.6191 1049.36 41.9238C1054.98 39.2285 1061.25 37.9688 1068.17 38.1445C1074.79 38.2617 1080.38 39.6387 1084.95 42.2754C1089.53 44.9121 1093.16 48.4277 1095.85 52.8223C1098.55 57.1582 1100.34 62.0801 1101.21 67.5879C1102.15 73.0957 1102.3 78.8086 1101.65 84.7266L1100.42 93.7793H1029.06L1031.52 78.5742L1081.88 78.6621L1082.23 76.8164C1082.76 73.125 1082.55 69.6387 1081.61 66.3574C1080.74 63.0762 1079.1 60.3809 1076.69 58.2715C1074.29 56.1621 1071.07 55.0488 1067.03 54.9316C1062.63 54.8145 1058.85 55.7227 1055.69 57.6562C1052.58 59.5898 1050 62.1973 1047.95 65.4785C1045.9 68.7598 1044.29 72.334 1043.12 76.2012C1042.01 80.0098 1041.21 83.7305 1040.75 87.3633L1040.39 90.8789C1040.04 94.3359 1040.13 97.7637 1040.66 101.162C1041.19 104.561 1042.21 107.666 1043.73 110.479C1045.26 113.232 1047.37 115.488 1050.06 117.246C1052.76 118.945 1056.1 119.854 1060.08 119.971C1065.06 120.088 1069.57 119.062 1073.62 116.895C1077.72 114.668 1081.44 111.797 1084.78 108.281L1094.97 119.092C1092.28 123.135 1088.94 126.475 1084.95 129.111C1081.03 131.748 1076.75 133.711 1072.12 135C1067.55 136.23 1062.89 136.816 1058.15 136.758Z" fill="black"/>
<path d="M1131.37 61.4355L1118.63 135H1097.89L1114.41 39.9023H1133.83L1131.37 61.4355ZM1124.08 83.9355L1117.75 84.0234C1118.45 78.3398 1119.83 72.7441 1121.88 67.2363C1123.99 61.6699 1126.77 56.6895 1130.23 52.2949C1133.69 47.8418 1137.88 44.3262 1142.8 41.748C1147.78 39.1699 1153.52 37.9688 1160.02 38.1445C1165.18 38.2617 1169.46 39.2871 1172.86 41.2207C1176.31 43.1543 1178.98 45.7617 1180.85 49.043C1182.79 52.3242 1184.05 56.0742 1184.63 60.293C1185.22 64.5117 1185.25 68.9355 1184.72 73.5645L1174.53 135H1153.7L1164.07 73.3008C1164.42 69.9023 1164.3 66.8555 1163.72 64.1602C1163.13 61.4062 1161.84 59.2383 1159.85 57.6562C1157.86 56.0156 1154.98 55.166 1151.23 55.1074C1147.13 54.9902 1143.53 55.752 1140.42 57.3926C1137.32 59.0332 1134.65 61.2891 1132.43 64.1602C1130.2 66.9727 1128.38 70.1074 1126.98 73.5645C1125.63 77.0215 1124.66 80.4785 1124.08 83.9355Z" fill="black"/>
<path d="M1243.44 39.9023L1240.72 55.3711H1188.69L1191.32 39.9023H1243.44ZM1210.4 16.6113H1231.05L1215.32 108.896C1215.08 110.947 1215.08 112.734 1215.32 114.258C1215.61 115.781 1216.28 116.982 1217.34 117.861C1218.45 118.682 1220.15 119.121 1222.44 119.18C1223.67 119.238 1224.9 119.18 1226.13 119.004C1227.42 118.828 1228.71 118.652 1230 118.477L1228.5 134.824C1226.39 135.469 1224.22 135.938 1222 136.23C1219.83 136.523 1217.63 136.641 1215.41 136.582C1210.13 136.523 1205.88 135.322 1202.66 132.979C1199.44 130.576 1197.18 127.383 1195.89 123.398C1194.6 119.414 1194.19 114.961 1194.66 110.039L1210.4 16.6113Z" fill="black"/>
<path d="M1288.8 108.721C1289.27 105.498 1288.57 103.008 1286.7 101.25C1284.82 99.4336 1282.48 98.0566 1279.66 97.1191C1276.85 96.1816 1274.27 95.4199 1271.93 94.834C1268.36 93.9551 1264.78 92.8418 1261.21 91.4941C1257.69 90.0879 1254.47 88.3301 1251.54 86.2207C1248.61 84.1113 1246.29 81.5332 1244.6 78.4863C1242.9 75.3809 1242.13 71.6895 1242.31 67.4121C1242.54 62.4902 1243.83 58.1836 1246.18 54.4922C1248.52 50.8008 1251.54 47.7246 1255.23 45.2637C1258.98 42.8027 1263.08 40.9863 1267.54 39.8145C1271.99 38.6426 1276.41 38.0859 1280.81 38.1445C1286.96 38.2617 1292.61 39.4629 1297.77 41.748C1302.98 44.0332 1307.14 47.4023 1310.25 51.8555C1313.41 56.3086 1314.97 61.8164 1314.91 68.3789L1294.34 68.291C1294.46 65.3613 1293.93 62.8418 1292.76 60.7324C1291.65 58.5645 1290.01 56.8945 1287.84 55.7227C1285.67 54.5508 1283.06 53.9355 1280.02 53.877C1277.38 53.8184 1274.77 54.2578 1272.19 55.1953C1269.67 56.1328 1267.51 57.5391 1265.69 59.4141C1263.87 61.2891 1262.76 63.6621 1262.35 66.5332C1262 68.7598 1262.32 70.6055 1263.32 72.0703C1264.31 73.4766 1265.69 74.6191 1267.45 75.498C1269.21 76.377 1271.05 77.1094 1272.98 77.6953C1274.98 78.2227 1276.76 78.6621 1278.35 79.0137C1283.33 80.3613 1288.22 82.0898 1293.02 84.1992C1297.83 86.25 1301.75 89.1504 1304.8 92.9004C1307.85 96.5918 1309.22 101.455 1308.93 107.49C1308.76 112.646 1307.41 117.1 1304.89 120.85C1302.37 124.541 1299.15 127.588 1295.22 129.99C1291.29 132.334 1286.99 134.062 1282.3 135.176C1277.67 136.289 1273.1 136.816 1268.59 136.758C1262.38 136.641 1256.52 135.352 1251.01 132.891C1245.56 130.43 1241.17 126.885 1237.83 122.256C1234.55 117.568 1232.91 111.855 1232.91 105.117L1252.86 105.205C1252.86 108.604 1253.53 111.475 1254.88 113.818C1256.29 116.162 1258.22 117.949 1260.68 119.18C1263.2 120.352 1266.13 120.967 1269.47 121.025C1272.22 121.025 1274.98 120.645 1277.73 119.883C1280.54 119.062 1282.95 117.744 1284.94 115.928C1286.99 114.111 1288.28 111.709 1288.8 108.721Z" fill="black"/>
</svg>
